<svg width="521" height="870" viewBox="0 0 521 870" fill="none" xmlns="http://www.w3.org/2000/svg">
<path d="M579.213 321.108C632.281 379.536 664.635 446.561 674.119 507.62C683.606 568.698 670.197 623.547 632.135 658.118C594.073 692.689 538.191 700.776 478.304 685.475C418.436 670.178 354.823 631.545 301.754 573.117C248.685 514.689 216.332 447.664 206.847 386.605C197.36 325.527 210.77 270.678 248.832 236.107C286.893 201.536 342.776 193.449 402.663 208.75C462.531 224.047 526.144 262.68 579.213 321.108Z" stroke="#FFE536" stroke-width="4"/>
<path d="M604.42 273.295C672.403 348.143 713.867 434.023 726.025 512.293C738.185 590.581 721.011 660.996 672.115 705.407C623.218 749.819 551.481 760.161 474.72 740.548C397.977 720.939 316.47 671.43 248.486 596.581C180.503 521.733 139.039 435.853 126.882 357.583C114.721 279.295 131.895 208.88 180.792 164.468C229.689 120.057 301.426 109.715 378.187 129.328C454.93 148.936 536.437 198.446 604.42 273.295Z" stroke="#FFE536" stroke-width="4"/>
</svg>
