<svg width="65" height="60" viewBox="0 0 65 60" fill="none" xmlns="http://www.w3.org/2000/svg">
<path fill-rule="evenodd" clip-rule="evenodd" d="M32.3131 0.30389C30.2146 1.15342 25.7201 4.08613 21.717 7.21779C13.8799 13.3495 6.72227 20.8781 3.20402 26.6908C0.870672 30.5459 -0.116236 33.6216 0.0108272 36.6432C0.0821199 38.3378 0.160092 38.6389 1.28273 41.5505C3.70271 47.827 8.18476 58.1233 9.27401 59.9085C9.44691 60.1923 9.4942 59.8659 9.51911 58.2159C9.63877 50.2491 14.2833 43.792 24.8824 36.8574C26.024 36.1105 29.2728 34.183 32.1019 32.5741C37.6184 29.4371 40.312 27.8494 45.1741 24.8683C49.7286 22.0759 56.1027 17.9568 56.1048 17.8044C56.1072 17.6519 51.1748 13.1059 47.7141 10.0709C41.0798 4.25242 35.6983 0.357857 33.8166 0.0133463C33.5094 -0.0428109 32.8591 0.0828457 32.3131 0.30389ZM57.963 21.0808C58.0312 21.4576 46.2211 28.9379 38.7011 33.2813C37.2554 34.1163 36.0727 34.8268 36.0727 34.8603C36.0727 34.8937 37.2706 35.6606 38.7349 36.5643C46.5132 41.3651 50.5568 45.3387 53.0965 50.6769C54.0204 52.6187 55.0017 55.6153 55.4829 57.9641C55.6623 58.8404 55.8586 59.623 55.9191 59.7034C55.9796 59.7839 56.2646 59.2462 56.5523 58.5086C58.8511 52.6187 61.217 47.3021 63.7415 42.3541L65 39.8871L64.8939 37.276C64.6717 31.8148 63.2191 27.6934 59.7386 22.6491C59.1417 21.7838 58.4893 21.0287 58.2887 20.9709C58.0794 20.9104 57.9406 20.9572 57.963 21.0808Z" fill="white"/>
</svg>
